# xmcd
#
# Track frame offsets:
#	150
#	6876
#	26688
#	43665
#	59656
#	87668
#	108806
#	139718
#	163561
#	174328
#	212108
#	240735
#	257178
#
# Disc length: 3907 seconds
#
# Revision: 1
# Processed by: cddbd v1.5PL3 Copyright (c) Steve Scherf et al.
# Submitted via: CDmax 2.0
#
DISCID=b20f410d
DTITLE=Hot Tuna - Jorma Kaukonen and Jack Casady - Jack and Jorma, The Original A
DTITLE=coustic Hot Tuna - Live in Pitman, NJ - 12.08.01 - d1
DYEAR=2001
DGENRE=Blues
TTITLE0=Intro
TTITLE1=Fool's Blues
TTITLE2=How Long Blues
TTITLE3=Waiting For A Train
TTITLE4=Death Don't Have No Mercy
TTITLE5=Do Not Go Gentle
TTITLE6=Serpent Of Dreams
TTITLE7=Living In The Moment
TTITLE8=Embryonic Journey
TTITLE9=Good Shepherd
TTITLE10=Sea Child
TTITLE11=Nobody Knows You When You're Down And Out
TTITLE12=I Know You Rider
EXTD=Hot Tuna\nBroadway Theatre, \nPitman, NJ \nDecember 08, 2001\n"Jack and Jo
EXTD=rma, The Original Acoustic Hot Tuna"\n\nSet 1:\n01. Intro\n02. Fool's Bl
EXTD=ues\n03. How Long Blues \n04. Waiting For A Train \n05. Death Don't Hav
EXTD=e No Mercy \n06. Do Not Go Gentle \n07. Serpent Of Dreams \n08. Living I
EXTD=n The Moment \n09. Embryonic Journey \n10. Good Shepherd\n11. Sea Child\
EXTD=n12. Nobody Knows You When You're Down And Out\n13. I Know You Rider\n\n
EXTD=Set 2:\nHesitation Blues\nUncle Sam Blues\nTrouble In Mind\nI See The Li
EXTD=ght\n99 Year Blues \nI Am The Light Of This World \nGenesis\nBeen So Lon
EXTD=g\nAnother Man Done Gone->\nParchman Farm\nSan Francisco Bay Blues\n\nEn
EXTD=core: \nThat'll Never Happen No More
EXTT0=
EXTT1=
EXTT2=
EXTT3=
EXTT4=
EXTT5=
EXTT6=
EXTT7=
EXTT8=
EXTT9=
EXTT10=
EXTT11=
EXTT12=
PLAYORDER=
